<?xml version="1.0"?>
<svg width="50" height="50" xmlns="http://www.w3.org/2000/svg" xmlns:svg="http://www.w3.org/2000/svg" xmlns:xlink="http://www.w3.org/1999/xlink">
 <g class="layer">
  <title>Layer 1</title>
  <use id="svg_3" transform="matrix(0.94753 0 0 0.94753 70.6253 80.7758)" x="-72.927852" xlink:href="#svg_2" y="-83.682699"/>
  <use id="svg_38" transform="matrix(0.758424 0 0 0.758987 -81.5032 -56.9694)" x="115.777207" xlink:href="#svg_37" y="81.155383"/>
  <g id="svg_4"/>
 </g>
 <defs>
  <symbol id="svg_37" viewBox="0 0 85.348 85.348" xmlns="http://www.w3.org/2000/svg" xmlns:xlink="http://www.w3.org/1999/xlink">
   <g id="svg_36">
    <g id="svg_40">
     <path d="m77.449997,57.691002l0,-3.160004l0,-18.967999l0,-18.968c0,-1.735999 -1.423996,-3.159999 -3.163986,-3.159999l-63.220001,0c-1.738998,0 -3.166998,1.417 -3.166998,3.159999l0,18.968l0,18.967999l0,3.160004l-7.899001,9.484001c0,2.612999 2.122,4.737999 4.738,4.737999l75.872006,0c2.616013,0 4.737991,-2.125999 4.737991,-4.737999l-7.89798,-9.484001l-0.000023,0l-0.000008,0zm-28.447998,12.647987l-12.643997,0c-0.440002,0 -0.791,-0.350998 -0.791,-0.791s0.350998,-0.790985 0.791,-0.790985l12.643997,0c0.433002,0 0.791,0.350998 0.791,0.790985c-0.010998,0.440002 -0.357998,0.791 -0.791,0.791zm-19.357998,-3.159996l2.411999,-2.895004l21.237,0l2.412003,2.895004l-26.060999,0l-0.000002,0zm43.354,-15.078003c0,1.525002 -1.242004,2.758999 -2.756004,2.758999l-55.135998,0c-1.513999,0 -2.756,-1.244999 -2.756,-2.758999l0,-33.069c0,-1.525 1.242,-2.759001 2.756,-2.759001l55.135998,0c1.514,0 2.756004,1.242001 2.756004,2.759001c0,0 0,33.069 0,33.069z" fill="#010002" id="svg_41"/>
     <path d="m48.264,37.789001l-7.765999,-7.766001c0.654999,-1.922001 0.229,-4.119001 -1.292,-5.647001c-1.428001,-1.427999 -3.454002,-1.875 -5.271999,-1.414l3.342999,3.342999l0.193001,1.764l-2.351002,2.344l-1.753998,-0.200001l-3.346003,-3.334999c-0.471998,1.824999 -0.021,3.84 1.410002,5.272003c1.535,1.531998 3.732998,1.942997 5.654999,1.292l7.758999,7.765999c-0.650997,1.922001 -0.224998,4.116001 1.296001,5.646999c1.428001,1.424 3.450001,1.879002 5.275002,1.413998l-3.346001,-3.342999l-0.193001,-1.761002l2.341,-2.348l1.768002,0.196999l3.342999,3.339005c0.476002,-1.822002 0.021,-3.833 -1.414001,-5.271999c-1.525993,-1.525002 -3.723,-1.940002 -5.648998,-1.292z" fill="#010002" id="svg_42"/>
    </g>
   </g>
   <g id="svg_43"/>
   <g id="svg_44"/>
   <g id="svg_45"/>
   <g id="svg_46"/>
   <g id="svg_47"/>
   <g id="svg_48"/>
   <g id="svg_49"/>
   <g id="svg_50"/>
   <g id="svg_51"/>
   <g id="svg_52"/>
   <g id="svg_53"/>
   <g id="svg_54"/>
   <g id="svg_55"/>
   <g id="svg_56"/>
   <g id="svg_57"/>
  </symbol>
  <symbol height="49" id="svg_2" width="49" xmlns="http://www.w3.org/2000/svg" xmlns:svg="http://www.w3.org/2000/svg">
   <g class="layer">
    <title>Layer 1</title>
    <circle cx="24.695557" cy="24.695559" fill="#000000" fill-opacity="0" id="svg_1" r="24.445559" stroke="#191919" stroke-dasharray="null" stroke-linecap="null" stroke-linejoin="null" stroke-width="0.5"/>
   </g>
  </symbol>
 </defs>
</svg>