<?xml version="1.0"?>
<svg width="82.93" height="125" xmlns="http://www.w3.org/2000/svg" xmlns:svg="http://www.w3.org/2000/svg" xmlns:xlink="http://www.w3.org/1999/xlink">
 <g class="layer">
  <title>Layer 1</title>
  <path d="m-333.946014,11.294c-16.481995,-16.480999 -43.113007,-16.348 -59.593994,0.134001c-16.482025,16.481 -16.598999,43.170999 -0.118011,57.962998l29.779022,29.609001l29.84201,-29.843002c16.481995,-14.792999 16.571991,-41.380999 0.090973,-57.862998zm-29.819977,55.048003c-14.022003,0 -25.389984,-11.368004 -25.389984,-25.390003s11.367981,-25.389999 25.389984,-25.389999s25.390015,11.368 25.390015,25.389999s-11.367035,25.390003 -25.390015,25.390003z" id="svg_1"/>
  <path d="m-202.330994,12.09c-16.207993,-16.208 -42.397003,-16.077 -58.605011,0.131c-16.207977,16.208001 -16.322998,42.454 -0.11499,58.663003l29.283997,29.115997l29.347,-29.347c16.207001,-16.208 16.296005,-42.355 0.089005,-58.563zm-29.325012,54.133999c-13.790009,0 -24.968018,-11.179001 -24.968018,-24.967999c0,-13.790001 11.179016,-24.969 24.968018,-24.969s24.968002,11.178999 24.968002,24.969c0,13.788998 -11.177994,24.967999 -24.968002,24.967999z" id="svg_2"/>
  <path d="m-60.181999,13.09c-16.208,-16.208 -42.397003,-16.077 -58.605003,0.131c-16.207993,16.208001 -16.322998,42.454 -0.115997,58.663003l29.285004,29.115997l29.346996,-29.347c16.208,-16.208 16.297001,-42.355 0.089001,-58.563zm-29.325005,54.133999c-13.788994,0 -24.967995,-11.179001 -24.967995,-24.967999c0,-13.790001 11.179001,-24.969 24.967995,-24.969c13.790001,0 24.969002,11.178999 24.969002,24.969c0,13.788998 -11.179001,24.967999 -24.969002,24.967999z" id="svg_3"/>
  <path d="m60.7836,24.133324c-9.562923,-9.562334 -25.014172,-9.485042 -34.577095,0.077881c-9.562925,9.562336 -9.630775,25.048389 -0.068443,34.61132l17.277927,17.178802l17.315098,-17.315098c9.562927,-9.562923 9.61544,-24.989983 0.052513,-34.552906zm-17.302116,31.939739c-8.135685,0 -14.731436,-6.595753 -14.731436,-14.731434c0,-8.136272 6.595751,-14.732021 14.731436,-14.732021c8.136272,0 14.732021,6.595749 14.732021,14.732021c0,8.135681 -6.595749,14.731434 -14.732021,14.731434z" fill="black" id="svg_4"/>
  <path d="m-362.477997,-135.934006c0,2.353989 -0.972015,4.287994 -2.914001,5.800003c-1.942993,1.512985 -2.915009,2.829994 -2.915009,3.950996l0,40.645996l-4.763,0l0,-40.645996c0,-1.121002 -0.971985,-2.438011 -2.914001,-3.950996c-1.942993,-1.513 -2.914978,-3.446014 -2.914978,-5.800003c0,-6.389008 1.419983,-12.534012 4.258972,-18.438004l0,15.804001l2.522003,0l0,-15.804001l2.801025,0l0,15.804001l2.577972,0l0,-15.804001c2.841003,5.904007 4.261017,12.049011 4.261017,18.438004z" id="svg_5"/>
  <path d="m-348.696014,-137.391006c0.037018,2.279999 -0.411987,8.854004 -1.346008,19.726997l-1.399994,0l0,32.127998l-4.764008,0l0,-32.127998l-0.783997,0l0,-36.708c1.605011,0.261993 2.970001,0.990005 4.091003,2.186005c2.764008,2.840012 4.165009,7.771011 4.203003,14.794998z" id="svg_6"/>
  <path d="m-328.432007,-166.671005c-19.526001,-19.526001 -51.076996,-19.368011 -70.604004,0.15799c-19.526001,19.526001 -19.665985,51.146004 -0.138977,68.672005l35.279999,35.078003l35.35498,-35.355003c19.527008,-17.526985 19.634003,-49.026993 0.108002,-68.552994zm-35.328003,65.217003c-16.613007,0 -30.080994,-13.467995 -30.080994,-30.081001s13.467987,-30.080994 30.080994,-30.080994s30.080994,13.468002 30.080994,30.080994s-13.467987,30.081001 -30.080994,30.081001z" id="svg_7"/>
  <path d="m-196.320999,-166.671005c-19.526001,-19.526001 -51.076996,-19.368011 -70.603989,0.15799c-19.526001,19.526001 -19.666016,51.146004 -0.139008,70.673004l35.279999,35.078003l35.354996,-35.355003c19.526001,-19.527985 19.634003,-51.027992 0.108002,-70.553993zm-35.328995,65.217003c-16.612991,0 -30.080994,-13.467995 -30.080994,-30.081001s13.468002,-30.080994 30.080994,-30.080994s30.081009,13.468002 30.081009,30.080994s-13.468018,30.081001 -30.081009,30.081001z" id="svg_8"/>
  <path d="m-53.172001,-166.671005c-19.525997,-19.526001 -51.077,-19.368011 -70.604,0.15799c-19.526001,19.526001 -19.666,51.146004 -0.139999,70.673004l35.279999,35.078003l35.355011,-35.355003c19.528,-19.527985 19.634991,-51.027992 0.10899,-70.553993zm-35.328999,65.217003c-16.612,0 -30.080002,-13.467995 -30.080002,-30.081001s13.468002,-30.080994 30.080002,-30.080994c16.612999,0 30.081001,13.468002 30.081001,30.080994s-13.468002,30.081001 -30.081001,30.081001z" id="svg_9"/>
  <path d="m76.828003,-166.671005c-19.526005,-19.526001 -51.077003,-19.368011 -70.603993,0.15799c-19.526,19.526001 -19.665,51.146004 -0.14,70.673004l35.28,35.078003l35.354992,-35.355003c19.528,-19.527985 19.634987,-51.027992 0.109001,-70.553993zm-35.329002,65.217003c-16.612001,0 -30.080001,-13.467995 -30.080001,-30.081001s13.467999,-30.080994 30.080001,-30.080994c16.612999,0 30.081001,13.468002 30.081001,30.080994s-13.468002,30.081001 -30.081001,30.081001z" id="svg_10"/>
  <g id="svg_11">
   <path d="m-235.425995,-131.427994l-17.677002,-2.485992l1.67601,-5.109009l18.919998,-1.404999l3.378998,-10.35199c0.757004,-2.325012 1.910004,-3.487 3.459,-3.487c0.901001,0 1.675995,0.265991 2.324997,0.796997c0.64801,0.531998 0.973007,1.238998 0.973007,2.121994c0,0.667007 -0.171005,1.531998 -0.514008,2.595001l-3.324997,10.270996l14.677002,12.406006l-1.675995,5.108002l-15.947021,-8.487l-3.487,10.676994l3.67601,7.676003l-1.244003,3.837997l-6.837997,-8.621994l-10.623001,2.945999l1.242996,-3.838005l7.568008,-4.082001l3.434998,-10.568001z" id="svg_12"/>
  </g>
  <g id="svg_13">
   <path d="m-89.086998,-136.496994l6.921997,-6.921997c-0.168999,-0.638 -0.252998,-1.285004 -0.252998,-1.940994c0,-1.970001 0.675003,-3.630005 2.025002,-4.980011c1.351997,-1.350998 2.991997,-2.026001 4.924995,-2.026001c0.675003,0 1.341003,0.094009 1.998001,0.281006l-5.347,5.346008l5.233002,5.261993l5.347,-5.347c0.187996,0.656998 0.280998,1.313004 0.280998,1.970001c0,1.931992 -0.676003,3.574005 -2.026001,4.923996s-2.990997,2.026001 -4.923996,2.026001c-0.713005,0 -1.416,-0.102997 -2.110001,-0.309998l-6.780998,6.781006l-5.487,5.458992l-6.443001,6.472c0.205994,0.694 0.309998,1.388 0.309998,2.083c0,1.951004 -0.670998,3.60199 -2.012001,4.952003c-1.342003,1.350998 -2.987,2.026001 -4.937996,2.026001c-0.656006,0 -1.312004,-0.094002 -1.970001,-0.281006l5.347,-5.346008l-5.262001,-5.261986l-5.347,5.347c-0.188004,-0.657005 -0.280998,-1.313004 -0.280998,-1.970001c0,-1.931999 0.675995,-3.574005 2.026001,-4.924004s3.000999,-2.026001 4.951996,-2.026001c0.655998,0 1.312004,0.084 1.970001,0.253006l6.612,-6.584007l5.233002,-5.263z" id="svg_14"/>
  </g>
  <polygon id="svg_15" points="62.499,-132.769 40.799,-154.468 19.552,-133.221 27.14,-133.141 27.14,-115.367 55.14,-115.367 55.14,-132.846 "/>
  <path d="m-346.661011,26.943001l-0.554993,-0.555c0.005981,-0.009001 0.013,-0.017 0.018982,-0.026001c-0.041992,-0.028999 -0.083984,-0.052999 -0.125977,-0.081999l-0.128021,-0.128c-0.005005,0.011 -0.013,0.021 -0.018982,0.032999c-2.124023,-1.468 -4.326019,-2.504 -6.611023,-3.083c-2.832977,1.275002 -5.584991,2.862001 -8.253998,4.762001c-2.668976,1.9 -5.260986,4.108 -7.776001,6.623999c-2.427979,2.428001 -4.577972,4.962002 -6.450989,7.604c-1.872009,2.641003 -3.462006,5.395 -4.769989,8.261002c0.674988,2.436001 1.724976,4.667 3.130981,6.702999c-0.014984,0.007999 -0.027985,0.015999 -0.042999,0.024002l0.708008,0.707996c1.119995,1.120003 2.097015,1.665001 2.933014,1.631001c0.833984,-0.032997 1.853973,-0.653999 3.061981,-1.861c1.679993,-1.681 2.602997,-3.199997 2.768005,-4.562c0.164001,-1.361 -0.412994,-2.701 -1.730011,-4.019997l-0.608002,-0.607002c0,0 0,0 0,0l-0.345978,-0.346001c-1.625,-1.625 0.108978,-4.983997 5.204987,-10.079998c4.929993,-4.93 8.208008,-6.583 9.833008,-4.958l0.23999,0.239998c-0.010986,0.003002 -0.022003,0.008003 -0.03299,0.011002l0.73999,0.741001c1.208008,1.208 2.501007,1.704998 3.878998,1.490997c1.378021,-0.213997 2.891022,-1.144997 4.537018,-2.792c1.174988,-1.174999 1.789978,-2.168999 1.845978,-2.981998c0.053009,-0.813 -0.428986,-1.73 -1.450989,-2.750999z" id="svg_16"/>
  <path d="m-219.671005,26.276001c-2.784012,-1.916 -6.605011,-2.873001 -11.334,-2.873001c-4.759003,0 -8.459991,0.958 -11.244003,2.873001c-2.453995,1.676998 -3.612,3.696999 -3.612,6.061001l0,23.295998l4,0l0,3l3,0l0,-3l16,0l0,3l3,0l0,-3l4,0l0,-23.295998c0.001007,-2.364002 -1.355988,-4.384003 -3.809998,-6.061001zm-22.980988,27.521c-1.287003,0 -1.931,-0.644001 -1.931,-1.931c0,-1.257 0.643997,-1.885002 1.931,-1.885002c1.285995,0 1.930008,0.628002 1.930008,1.885002c-0.000015,1.287998 -0.644012,1.931 -1.930008,1.931zm10.791992,-11.164001l-12,0l0,-10l12,0l0,10zm12.328003,11.164001c-1.257004,0 -1.88501,-0.644001 -1.88501,-1.931c0,-1.257 0.628006,-1.885002 1.88501,-1.885002c1.287003,0 1.929993,0.628002 1.929993,1.885002c0,1.287998 -0.64299,1.931 -1.929993,1.931zm1.671997,-11.164001l-12,0l0,-10l12,0l0,10z" id="svg_17"/>
  <path d="m-282.269989,300.10199c-2.246002,-1.817993 -6.416992,-4.812012 -6.416992,-8.020996c0,-5.774994 1.924988,-12.619995 6.630981,-16.256989c9.83902,-7.701019 31.016006,-12.192017 43.422012,-12.192017c12.298996,0 35.293991,4.705994 44.492004,13.261993c4.384995,4.063995 5.454987,9.412018 5.454987,16.792023c0,1.603973 -3.957993,4.597992 -6.311996,6.415985l-22.246002,-10.802002c0,-1.069 0.108002,-2.458984 0.108002,-3.850983c0,-4.063019 -0.641998,-8.663025 -5.455002,-8.663025l-32.084991,0c-4.813004,0 -5.455002,4.600006 -5.455002,8.663025c0,1.391998 0.106995,2.780975 0.106995,3.850983l-22.244995,10.802002z" id="svg_18"/>
  <path d="m-238.694,281.260986c-8.449997,0 -15.722,7.27301 -15.722,15.722015c0,8.770996 7.272003,16.256989 15.934998,16.256989c8.770004,0 16.042999,-6.950989 16.042999,-15.828003c0,-8.984985 -7.487,-16.151001 -16.255997,-16.151001zm0.419006,24.042999c-4.339996,0 -7.856995,-3.518982 -7.856995,-7.855988c0,-4.33902 3.516998,-7.856995 7.856995,-7.856995c4.339005,0 7.85701,3.518982 7.85701,7.856995c-0.000015,4.337006 -3.518021,7.855988 -7.85701,7.855988z" id="svg_19"/>
  <path d="m-206.860001,312.82901l-7.173996,-12.196014l-3.636002,0c-0.749008,8 -10.481003,18.073029 -19.785995,18.073029c-10.802002,0 -20.533997,-7.073029 -21.925018,-18.073029l-3.850983,0l-8.627991,12.196014l0,22.803986l6.490997,0c-0.013,0 -0.034027,0.336029 -0.034027,0.434021c0,1.415985 1.350006,2.639008 3.015015,2.639008s3.015015,-1.261017 3.015015,-2.676025c0,-0.098999 -0.021027,-0.395996 -0.034027,-0.395996l41.036011,0c-0.013,0 -0.033997,0.335999 -0.033997,0.434021c0,1.415985 1.350006,2.638977 3.014999,2.638977c1.664993,0 3.014999,-1.260986 3.014999,-2.675995c0,-0.098999 -0.020996,-0.395996 -0.033997,-0.395996l5.550003,0l0,-22.806l-0.001007,0z" id="svg_20"/>
  <g id="svg_21">
   <path d="m-87.708,27.563999l0,11.941002l11.448997,0l0,5.149998l-11.448997,0l0,12.051003l-5.367996,0l0,-12.051003l-11.449005,0l0,-5.149998l11.449005,0l0,-11.941002l5.367996,0z" id="svg_22"/>
  </g>
  <path d="m-322.196014,303.846008c0,-9.768005 -9.665009,-17.734009 -18.665009,-18.088013l0,-4.125l-67,0l0,49.792023c0,3.584991 3.321014,6.207977 6.906006,6.207977l53.011017,0c3.584991,0 7.082977,-2.622986 7.082977,-6.207977l0,-9.490997c9.001038,-0.35202 18.665009,-8.319031 18.665009,-18.088013zm-18.663971,9.43399l0,-18.867004c5,0.321991 10.01001,4.424011 10.01001,9.433014s-5.01001,9.109985 -10.01001,9.43399z" id="svg_23"/>
  <path d="m-371.339996,277.936005c-2.959991,-1.436005 -5.746002,-3.140991 -8.506012,-4.912018c-2.738007,-1.806 -5.390991,-3.728973 -7.917999,-5.987c-0.626007,-0.572998 -1.248993,-1.166992 -1.858978,-1.823975c-0.609009,-0.671021 -1.200012,-1.359009 -1.768005,-2.364014c-0.262024,-0.535004 -0.604004,-1.100006 -0.647003,-2.25c-0.015015,-0.561005 0.156006,-1.367004 0.626007,-2.002991c0.462982,-0.63501 1.049988,-0.989014 1.496979,-1.182007c0.915009,-0.376007 1.542023,-0.39801 2.113007,-0.434998c0.571014,-0.020996 1.071014,0.005981 1.550995,0.049988c0.873016,0.080994 1.485016,0.131012 2.248016,0.153015c0.729004,0.02298 1.455994,0.011993 2.177979,-0.036011c1.443024,-0.080994 2.873016,-0.281982 4.232025,-0.643982c1.35498,-0.338013 2.666992,-0.835007 3.733002,-1.479019c0.531982,-0.309998 0.998993,-0.666992 1.300995,-0.98999c0.320984,-0.320007 0.34198,-0.567001 0.350983,-0.391006c0.013,0.074005 0.067993,0.175003 0.078003,0.154999c0.009003,-0.011002 -0.044006,-0.108994 -0.187988,-0.227997c-0.136993,-0.121002 -0.346008,-0.251007 -0.583008,-0.386002c-0.114014,-0.059006 -0.251007,-0.130997 -0.455994,-0.222l-0.537018,-0.246994c-1.454987,-0.656998 -2.935974,-1.32901 -4.41098,-2.029007c-2.947021,-1.414993 -5.899017,-2.908997 -8.679016,-4.817001c-1.359985,-0.990997 -2.752991,-2.000992 -3.838989,-3.463989c-0.505005,-0.716003 -1.028992,-1.697006 -0.753998,-2.733002c0.330994,-0.997009 1.156006,-1.451004 1.894989,-1.755005c-0.591003,0.546997 -1.138,1.238007 -1.087982,1.884003c0.022003,0.619003 0.493988,1.14299 1.052002,1.591003c1.148987,0.888992 2.574982,1.563995 4.019989,2.153c2.898987,1.197998 5.932007,2.187988 8.977997,3.192993c1.526001,0.505997 3.057007,1.003006 4.605988,1.552002l0.585999,0.207001c0.169006,0.05899 0.405029,0.147003 0.661011,0.25c0.496002,0.205002 0.997009,0.472 1.51001,0.830002c0.509003,0.358994 1.040985,0.837997 1.487,1.505997c0.445984,0.656998 0.768982,1.557007 0.791992,2.438004c0.040009,0.888 -0.182007,1.690994 -0.479004,2.334991c-0.298004,0.647018 -0.665985,1.17601 -1.048004,1.625015c-0.766998,0.894989 -1.595001,1.533997 -2.43399,2.076996c-1.690002,1.057007 -3.44101,1.712982 -5.208008,2.18399c-1.774994,0.438995 -3.567993,0.679016 -5.352997,0.733002c-0.894989,0.020996 -1.785004,0 -2.669983,-0.062012c-0.852997,-0.056 -1.848999,-0.172974 -2.580017,-0.302002c-0.320984,-0.053986 -0.627991,-0.085999 -0.867981,-0.095978c-0.234009,-0.020996 -0.425018,0.033997 -0.262024,-0.035004c0.070007,-0.040009 0.313019,-0.160004 0.532013,-0.470001c0.229004,-0.308014 0.291992,-0.705994 0.277008,-0.863007c-0.046021,-0.337006 -0.067017,-0.127991 0.026001,0.057007c0.174988,0.434998 0.572998,1.036011 0.994995,1.608002c0.424988,0.584991 0.906982,1.173004 1.412994,1.753998c2.022003,2.343994 4.303009,4.618011 6.562012,6.911987c2.253998,2.313995 4.584991,4.56601 6.834991,6.959015z" id="svg_24"/>
  <path d="m296.894012,-171.212006c-0.911987,-0.912003 -2.47699,-1.154999 -4.933014,-1.154999l-36.263992,0c-2.386002,0 -3.869003,-0.397003 -4.445999,-0.766998c-0.580002,-0.366013 -1.113998,-1.571014 -1.606003,-3.395004l-0.577988,-2.317001c-0.491013,-1.824005 -1.184006,-3.119003 -2.080002,-3.628998c-0.893997,-0.508011 -2.692001,-0.891998 -5.393997,-0.891998l-20.211014,0c-3.263,0 -5.314987,0.347992 -6.15799,0.838989c-0.84201,0.491013 -1.562012,1.894012 -2.156998,4.104004l-0.526001,2.130997c-0.352005,1.368011 -0.843002,2.514999 -1.473999,2.990005c-0.632004,0.472992 -1.702011,0.936005 -3.211014,0.936005l-3,0c-4.314987,0 -6.715988,1.748993 -6.715988,6.099991l0,60.900017l100,0l0,-60.953011c0,-2.491989 -0.334015,-3.978989 -1.246002,-4.891998zm-58.631012,16.557007c2.425003,0 4.389999,1.964996 4.389999,4.389999s-1.964996,4.389999 -4.389999,4.389999s-4.389999,-1.964996 -4.389999,-4.389999s1.964996,-4.389999 4.389999,-4.389999zm-15.895004,36.651001l-14.738998,0.089996l23.561996,-23.561996l7.324005,7.324005l15.949005,15.950996l-32.096008,0.196999zm37.097,-0.198006l-15.94899,-15.950996l15.727982,-15.727997l31.624023,31.625999l-31.403015,0.052994z" id="svg_25"/>
  <g id="svg_26">
   <polygon id="svg_27" points="246.14,-34.047 254.241,-42.148 246.14,-50.249  "/>
   <path d="m296.907013,-74.336998c-0.912018,-0.912003 -2.462006,-1.029999 -4.916992,-1.029999l-36.264008,0c-2.387009,0 -3.869003,-0.522003 -4.447006,-0.892006c-0.580002,-0.365997 -1.112991,-1.632996 -1.604996,-3.458l-0.578003,-2.348c-0.492004,-1.823997 -1.184006,-3.009995 -2.080002,-3.519997c-0.894989,-0.508003 -2.692993,-0.782997 -5.394989,-0.782997l-20.211014,0c-3.262009,0 -5.314011,0.223 -6.158005,0.713997c-0.841995,0.490997 -1.561005,1.832001 -2.156006,4.042l-0.526993,2.099998c-0.352005,1.368004 -0.841995,2.625 -1.473007,3.098999c-0.632996,0.473 -1.702988,1.045006 -3.210999,1.045006l-3,0c-4.315994,0 -6.744995,1.498993 -6.744995,5.849998l0,61.149998l100.000015,0l0,-61.202c0,-2.491997 -0.321014,-3.854004 -1.233002,-4.766998zm-23.766998,42.865997c0,2.266001 -1.837006,4.104 -4.102997,4.104l-39.794998,0c-2.266006,0 -4.102997,-1.837 -4.102997,-4.104l0,-19.792999c0,-2.265999 1.83699,-4.104 4.102997,-4.104l39.794998,0c2.265991,0 4.102997,1.837002 4.102997,4.104l0,19.792999z" id="svg_28"/>
  </g>
  <g id="svg_29">
   <path d="m244.425003,41.703999l0.093994,3.450001c0,0 11.595016,-5.27 18.396988,-3.640999l-0.287994,-1.821999c0,0 -7.185989,-2.108002 -18.202988,2.012997z" id="svg_30"/>
   <path d="m296.890015,23.65c-0.912018,-0.911999 -2.479004,-1.018 -4.936005,-1.018l-36.264008,0c-2.386002,0 -3.869003,-0.534 -4.445999,-0.903999c-0.580002,-0.366001 -1.113998,-1.639 -1.606003,-3.463001l-0.578003,-2.351999c-0.490997,-1.824 -1.18399,-2.999001 -2.080002,-3.509c-0.893997,-0.508 -2.692001,-0.772 -5.393997,-0.772l-20.210999,0c-3.263,0 -5.315002,0.211 -6.158005,0.702c-0.841995,0.491 -1.561996,1.825001 -2.156998,4.035l-0.526001,2.097c-0.35199,1.368 -0.843002,2.635 -1.473999,3.110001c-0.632004,0.473 -1.701996,1.056 -3.210999,1.056l-3,0c-4.315002,0 -6.709,1.475 -6.709,5.825001l0,61.175011l100.000015,0l0,-61.227011c0,-2.491001 -0.338013,-3.842001 -1.25,-4.755001zm-30.75,41.610003c0,2.520996 -2.502014,4.945 -5.679993,5.718994c-3.639008,0.882004 -7.275009,-0.734985 -7.975006,-3.615997c-0.703003,-2.881989 1.526993,-5.931999 5.169006,-6.815998c1.65799,-0.403 3.484985,-0.287003 4.484985,0.230999l0,-13.967999c-9.999985,0.681 -16.999985,3.399998 -16.999985,3.399998l0,18.780998c0,2.728004 -2.31601,5.487 -5.748001,6.323013c-3.641006,0.882988 -7.330002,-0.735008 -8.029007,-3.615013c-0.699005,-2.880997 1.602997,-5.932999 5.240997,-6.816986c1.690002,-0.410011 3.30899,-0.283012 4.677994,0.261986l0.219009,-25.138996c0,0 10.639999,-4.953003 24.639999,-4.506001c0,5.098999 0,29.733002 0,29.761002z" id="svg_31"/>
  </g>
  <path d="m296.483002,120.459c-0.911987,-0.912003 -2.886993,-0.825996 -5.342987,-0.825996l-36.264008,0c-2.386002,0 -3.869003,-0.725006 -4.446014,-1.096001c-0.579987,-0.365005 -1.113998,-1.734001 -1.605988,-3.559006l-0.578003,-2.398994c-0.490997,-1.824005 -1.184006,-2.831001 -2.080002,-3.341003c-0.893997,-0.507996 -2.692001,-0.604996 -5.393997,-0.604996l-20.210999,0c-3.263,0 -5.315002,0.019997 -6.158005,0.511993c-0.841995,0.490005 -1.561996,1.729004 -2.156998,3.938004l-0.526001,2.050003c-0.352005,1.367996 -0.843002,2.802994 -1.473999,3.277c-0.632004,0.473 -1.701996,1.223 -3.210999,1.223l-3,0c-4.315002,0 -5.895996,1.092995 -5.895996,5.442993l0,61.556999l100,0l0,-61.608994c0.001007,-2.492004 -0.743011,-3.651001 -1.656006,-4.565002zm-39.342987,53.173996l-25,0l0,-34l25,0l0,34zm6,-6l-3,0l0,-31l-22,0l0,-3l25,0l0,34z" id="svg_32"/>
  <g id="svg_33">
   <path d="m376.761993,289.826996l0,-61c0,-4.350998 2.15799,-6.526001 6.473999,-6.526001l3,0c1.509003,0 2.57901,-0.237 3.210999,-0.709991c0.631012,-0.475006 1.122009,-1.395996 1.473999,-2.764008l0.526001,-2.104996c0.596008,-2.210007 1.315002,-3.561996 2.157013,-4.052994c0.842987,-0.491013 2.895996,-0.736008 6.15799,-0.736008l20.210999,0c2.700989,0 4.5,0.255005 5.394012,0.763c0.895996,0.509995 1.588989,1.675995 2.079987,3.5l0.578003,2.264008c0.492004,1.82399 1.026001,2.921997 1.605988,3.287994c0.576996,0.369995 2.061005,0.554001 4.446014,0.554001l36.264008,0c2.455994,0 4.140991,0.455994 5.052979,1.367996c0.912018,0.912994 1.368011,2.613998 1.368011,5.104996l0,61.053009l-100,0l0,-0.001007z" id="svg_34"/>
  </g>
  <path d="m302,223.835007c-0.911987,-0.912003 -2.368011,-1.201996 -4.824005,-1.201996l-36.264008,0c-2.385986,0 -3.868988,-0.350006 -4.445984,-0.720001c-0.580002,-0.365997 -1.113998,-1.546997 -1.606003,-3.371002l-0.578003,-2.306c-0.490997,-1.824005 -1.18399,-3.160004 -2.080002,-3.669998c-0.893997,-0.507996 -2.692001,-0.934006 -5.393997,-0.934006l-20.210999,0c-3.263,0 -5.315002,0.395004 -6.158005,0.887009c-0.841995,0.48999 -1.561996,1.916992 -2.156998,4.126999l-0.526001,2.143997c-0.35199,1.367996 -0.843002,2.473999 -1.473999,2.947998c-0.632004,0.473007 -1.701996,0.895004 -3.210999,0.895004l-3,0c-4.315002,0 -6.931,1.843994 -6.931,6.194l0,60.805984l100.000015,0l0,-60.858002c0,-2.491989 -0.228027,-4.026993 -1.140015,-4.939987zm-41.859985,47.759995c0,1.437012 -0.735016,3.037994 -2.173004,3.037994l-25.945984,0c-1.438004,0 -2.881012,-1.60199 -2.881012,-3.037994l0,-27.040009c0,-1.436996 1.443008,-2.921997 2.881012,-2.921997l14.388992,0l-3.162003,3.965012l-10.106995,0.071991l0,24.962997l24,0l0,-11.145996l3,-0.743988l0,12.85199l-0.001007,0zm3,-11.112l0,-5.757996c0,0 -8.326004,-0.585007 -14.380997,3.165009c-4.022995,2.490997 -6.362991,4.981995 -8.354004,8.35199c0,0 0.422989,-8.944 5.569,-17.09201c6.434006,-10.186996 17.164993,-11.860001 17.164993,-11.860001l0,-5.537994l14.365021,14.335007l-14.364014,14.395996z" id="svg_35"/>
  <use id="svg_38" transform="matrix(0.281364 0 0 0.281364 -0.423667 19.227)" x="112.049361" xlink:href="#svg_37" y="16.929405"/>
  <g id="svg_39"/>
 </g>
 <defs>
  <symbol id="svg_37" viewBox="0 0 85.348 85.348" xmlns="http://www.w3.org/2000/svg" xmlns:xlink="http://www.w3.org/1999/xlink">
   <g id="svg_36">
    <g id="svg_40">
     <path d="m77.449997,57.691002l0,-3.160004l0,-18.967999l0,-18.968c0,-1.735999 -1.423996,-3.159999 -3.163994,-3.159999l-63.220003,0c-1.739,0 -3.167,1.417 -3.167,3.159999l0,18.968l0,18.967999l0,3.160004l-7.899,9.484001c0,2.612999 2.122,4.737999 4.738,4.737999l75.872001,0c2.615997,0 4.737999,-2.125999 4.737999,-4.737999l-7.898003,-9.484001zm-28.447998,12.647995l-12.643997,0c-0.440002,0 -0.791,-0.350998 -0.791,-0.791s0.350998,-0.790993 0.791,-0.790993l12.643997,0c0.433002,0 0.791,0.350998 0.791,0.790993c-0.010998,0.440002 -0.357998,0.791 -0.791,0.791zm-19.357998,-3.159996l2.411999,-2.895004l21.237,0l2.412003,2.895004l-26.061001,0zm43.354,-15.077999c0,1.524998 -1.242004,2.758999 -2.756004,2.758999l-55.135997,0c-1.514,0 -2.756,-1.244999 -2.756,-2.758999l0,-33.069002c0,-1.525 1.242,-2.758999 2.756,-2.758999l55.135997,0c1.514,0 2.756004,1.241999 2.756004,2.758999c0,0 0,33.069002 0,33.069002z" fill="#010002" id="svg_41"/>
     <path d="m48.264,37.789001l-7.765999,-7.766001c0.654999,-1.922001 0.229,-4.119001 -1.292,-5.647001c-1.428001,-1.427999 -3.454002,-1.875 -5.271999,-1.414l3.342999,3.343l0.193001,1.764l-2.351002,2.344l-1.753998,-0.200001l-3.346003,-3.334999c-0.471998,1.824999 -0.021,3.84 1.410002,5.272001c1.535,1.531998 3.732998,1.942997 5.654999,1.292l7.758999,7.765999c-0.650997,1.922001 -0.224998,4.116001 1.296001,5.646999c1.428001,1.424 3.450001,1.879002 5.275002,1.414001l-3.346001,-3.343002l-0.193001,-1.760998l2.341,-2.348l1.768002,0.196999l3.342999,3.339001c0.476002,-1.822002 0.021,-3.833 -1.414001,-5.271999c-1.525997,-1.525002 -3.723,-1.940002 -5.648998,-1.292z" fill="#010002" id="svg_42"/>
    </g>
   </g>
   <g id="svg_43"/>
   <g id="svg_44"/>
   <g id="svg_45"/>
   <g id="svg_46"/>
   <g id="svg_47"/>
   <g id="svg_48"/>
   <g id="svg_49"/>
   <g id="svg_50"/>
   <g id="svg_51"/>
   <g id="svg_52"/>
   <g id="svg_53"/>
   <g id="svg_54"/>
   <g id="svg_55"/>
   <g id="svg_56"/>
   <g id="svg_57"/>
  </symbol>
 </defs>
</svg>