<?xml version="1.0"?>
<svg width="82.93" height="125" xmlns="http://www.w3.org/2000/svg" xmlns:svg="http://www.w3.org/2000/svg" xmlns:xlink="http://www.w3.org/1999/xlink">
 <g class="layer">
  <title>Layer 1</title>
  <path d="m60.367786,31.372234c-8.781151,-8.780607 -22.96925,-8.709637 -31.750399,0.071514c-8.781149,8.780609 -8.843454,23.000671 -0.062845,31.781826l15.865448,15.774426l15.899574,-15.899578c8.781151,-8.781151 8.829376,-22.947037 0.048222,-31.728188zm-15.887661,29.328644c-7.470589,0 -13.527132,-6.056538 -13.527132,-13.52713c0,-7.47113 6.056543,-13.527668 13.527132,-13.527668c7.47113,0 13.527672,6.056538 13.527672,13.527668c0,7.470592 -6.056541,13.52713 -13.527672,13.52713z" fill="black" id="svg_4"/>
  <use id="svg_42" transform="matrix(0.22249 0 0 0.25321 33.6621 40.0154)" x="7.797827" xlink:href="#svg_41" y="-33.070578"/>
 </g>
 <defs>
  <symbol id="svg_41" viewBox="0 0 33.297 33.297" xmlns="http://www.w3.org/2000/svg" xmlns:xlink="http://www.w3.org/1999/xlink">
   <g id="svg_61">
    <path d="m24.07,0l-14.842999,0c-1.237,0 -2.249,1.013 -2.249,2.249l0,28.8c0,1.233997 1.013,2.245998 2.249,2.248001l14.842999,0c1.236,-0.002003 2.249001,-1.014004 2.249001,-2.248001l0,-28.8c0,-1.236 -1.012001,-2.249 -2.249001,-2.249zm-9.797,1.621l4.750001,0c0.149,0 0.271,0.122 0.271,0.272c0,0.149 -0.121,0.272 -0.271,0.272l-4.749001,0c-0.150002,0 -0.273,-0.123 -0.273,-0.272c0,-0.15 0.124,-0.272 0.271998,-0.272l0.000001,0zm-5.731,27.514l0,-25.569l16.212999,0l-0.002001,23.266001l-3.657999,-6.336c1.098,-1.674 1.254,-3.875998 0.185999,-5.726998c-1.067999,-1.852 -3.054998,-2.817 -5.052,-2.704l2.030001,3.514998c0.674999,1.170001 0.273001,2.667998 -0.896,3.344003s-2.667,0.272999 -3.342,-0.896l-2.03,-3.517002c-1.097,1.673002 -1.252,3.878002 -0.184,5.728001c1.068,1.852001 3.054,2.816 5.049999,2.703001l3.575001,6.192999l-11.889999,0l0,-0.000002zm8.106001,3.040998c-0.621,0 -1.124,-0.506002 -1.124,-1.126999s0.502999,-1.125 1.124,-1.125s1.125,0.504 1.125,1.125s-0.503,1.126999 -1.125,1.126999z" id="svg_62"/>
   </g>
   <g id="svg_63"/>
   <g id="svg_64"/>
   <g id="svg_65"/>
   <g id="svg_66"/>
   <g id="svg_67"/>
   <g id="svg_68"/>
   <g id="svg_69"/>
   <g id="svg_70"/>
   <g id="svg_71"/>
   <g id="svg_72"/>
   <g id="svg_73"/>
   <g id="svg_74"/>
   <g id="svg_75"/>
   <g id="svg_76"/>
   <g id="svg_77"/>
  </symbol>
 </defs>
</svg>